# xmcd CD database file
#
# Track frame offsets:
#	150
#	19027
#	38250
#	58962
#	84887
#	97765
#	114605
#	131632
#	149757
#	162775
#	185692
#	200975
#	215217
#
# Disc length: 3026 seconds
#
# Revision: 0
# Processed by: cddbd v1.5PL3 Copyright (c) Steve Scherf et al.
# Submitted via: CDex 1.40Beta9
#
DISCID=bc0bd00d
DTITLE=ARB - SYMPATHY
DYEAR=1900
DGENRE=Rock
TTITLE0=SYMPATHY
TTITLE1=ROCK THE GUERRILLA
TTITLE2=URBAN FREEWAY
TTITLE3=MURDER GAME
TTITLE4=CLASSICAL HARMONY
TTITLE5=ALL THE CHILDREN'S LOVE
TTITLE6=SCRAMBLE WORLD
TTITLE7=GOLDEN TIME
TTITLE8=１人ぼっちの世界
TTITLE9=NO EASY ROAD
TTITLE10=SOUL TO SOUL
TTITLE11=抵抗の詩
TTITLE12=明日へのBOOGIE
EXTD=ID3G: 17
EXTT0=
EXTT1=
EXTT2=
EXTT3=
EXTT4=
EXTT5=
EXTT6=
EXTT7=
EXTT8=
EXTT9=
EXTT10=
EXTT11=
EXTT12=
PLAYORDER=
